<svg xmlns="http://www.w3.org/2000/svg" xmlns:xlink="http://www.w3.org/1999/xlink" id="Laag_1" width="16" height="16" x="0" y="0" enable-background="new .511 .495 16 16" version="1.1" viewBox="0.511 0.495 16 16" xml:space="preserve"><rect width="16.001" height="16" x=".511" y=".495" fill="#FFF" fill-opacity="0"/><g><defs><rect id="SVGID_1_" width="16.001" height="16" x=".511" y=".495"/></defs><clipPath id="SVGID_2_"><use overflow="visible" xlink:href="#SVGID_1_"/></clipPath><g clip-path="url(#SVGID_2_)"><path fill="#40B6E0" fill-opacity=".6" d="M1.511,8.494c0-3.866,3.134-7,7-7s7.001,3.134,7.001,7c0,3.867-3.135,7-7.001,7 S1.511,12.361,1.511,8.494z"/></g></g><g><defs><rect id="SVGID_3_" width="16.001" height="16" x=".511" y=".495"/></defs><clipPath id="SVGID_4_"><use overflow="visible" xlink:href="#SVGID_3_"/></clipPath></g><g opacity=".7"><path fill="#231F20" d="M11.149,8.553c-0.132,0.27-0.313,0.494-0.541,0.674c-0.229,0.181-0.496,0.317-0.803,0.41 c-0.307,0.094-0.635,0.14-0.983,0.14H7.568v2.024H6.471V5.501h2.483c0.366,0,0.697,0.049,0.994,0.148 c0.298,0.099,0.55,0.242,0.757,0.427c0.207,0.186,0.365,0.408,0.477,0.666c0.111,0.258,0.167,0.549,0.167,0.873 C11.349,7.97,11.282,8.282,11.149,8.553z M9.853,6.785C9.605,6.595,9.275,6.5,8.859,6.5H7.568v2.277h1.291 c0.422,0,0.754-0.104,0.998-0.312c0.244-0.208,0.366-0.483,0.366-0.827C10.224,7.259,10.1,6.975,9.853,6.785z"/></g></svg>