<svg xmlns="http://www.w3.org/2000/svg" xmlns:xlink="http://www.w3.org/1999/xlink" id="Laag_1" width="16" height="16" x="0" y="0" enable-background="new .511 .495 16 16" version="1.1" viewBox="0.511 0.495 16 16" xml:space="preserve"><rect width="16.001" height="16" x=".511" y=".495" fill="#FFF" fill-opacity="0"/><g><defs><rect id="SVGID_1_" width="16.001" height="16" x=".511" y=".495"/></defs><clipPath id="SVGID_2_"><use overflow="visible" xlink:href="#SVGID_1_"/></clipPath><g clip-path="url(#SVGID_2_)"><path fill="#40B6E0" fill-opacity=".6" d="M1.511,8.494c0-3.866,3.134-7,7-7s7.001,3.134,7.001,7c0,3.867-3.135,7-7.001,7 S1.511,12.361,1.511,8.494z"/></g></g><g><defs><rect id="SVGID_3_" width="16.001" height="16" x=".511" y=".495"/></defs><clipPath id="SVGID_4_"><use overflow="visible" xlink:href="#SVGID_3_"/></clipPath></g><g opacity=".7"><path fill="#231F20" d="M5.805,5.19h0.774v6.345H5.48v-5.22L4.347,6.631l-0.234-0.9L5.805,5.19z"/><path fill="#231F20" d="M8.056,11.535v-1.232h1.196v1.232H8.056z"/><path fill="#231F20" d="M11.34,5.19h0.774v6.345h-1.099v-5.22L9.882,6.631l-0.233-0.9L11.34,5.19z"/></g></svg>