<svg xmlns="http://www.w3.org/2000/svg" xmlns:xlink="http://www.w3.org/1999/xlink" id="Laag_1" width="16" height="16" x="0" y="0" enable-background="new .511 .495 16 16" version="1.1" viewBox="0.511 0.495 16 16" xml:space="preserve"><rect width="16.001" height="16" x=".511" y=".495" fill="#FFF" fill-opacity="0"/><g><defs><rect id="SVGID_1_" width="16.001" height="16" x=".51" y=".495"/></defs><clipPath id="SVGID_2_"><use overflow="visible" xlink:href="#SVGID_1_"/></clipPath><g clip-path="url(#SVGID_2_)"><path fill="#B99BF8" fill-opacity=".6" d="M1.51,8.494c0-3.866,3.134-7,7-7s7.001,3.134,7.001,7c0,3.867-3.135,7-7.001,7 S1.51,12.361,1.51,8.494z"/></g></g><g><defs><rect id="SVGID_3_" width="16.001" height="16" x=".511" y=".495"/></defs><clipPath id="SVGID_4_"><use overflow="visible" xlink:href="#SVGID_3_"/></clipPath></g><g><path d="M5.421,5.972V4.937H6.6v1.035H5.421z M5.466,11.453V6.701h1.099v4.752H5.466z" opacity=".7"/><path d="M11.217,6.701h1.144l-1.944,4.788H9.435L7.482,6.701h1.17l1.277,3.492L11.217,6.701z" opacity=".7"/></g></svg>