<svg xmlns="http://www.w3.org/2000/svg" xmlns:xlink="http://www.w3.org/1999/xlink" width="32" height="32"><rect width="32" height="32" fill="#FFF" fill-opacity="0" stroke="none"/><defs><clipPath id="clip_0"><rect width="32" height="32" clip-rule="evenodd"/></clipPath></defs><g clip-path="url(#clip_0)"><path fill="#65B344" fill-opacity=".698" stroke="none" d="M0 0L30 0L30 14L0 14L0 0Z" transform="translate(2 18)"/></g><defs><clipPath id="clip_1"><rect width="32" height="32" clip-rule="evenodd"/></clipPath></defs><g clip-path="url(#clip_1)"><path fill="#9AA7B0" fill-opacity=".8" stroke="none" d="M0 14L20 14L20 0L10 0L10 10L0 10L0 14Z" transform="translate(6 2)"/></g><defs><clipPath id="clip_2"><rect width="32" height="32" clip-rule="evenodd"/></clipPath></defs><g clip-path="url(#clip_2)"><path fill="#9AA7B0" fill-opacity=".8" stroke="none" d="M0 8L8 0L8 8L0 8Z" transform="translate(6 2)"/></g><defs><clipPath id="clip_3"><rect width="32" height="32" clip-rule="evenodd"/></clipPath></defs><g clip-path="url(#clip_3)"><text x="0" y="4.9" fill="#231F20" fill-opacity=".698" stroke="none" font-family="Gotham" font-size="14" font-weight="bold" transform="translate(3.5 25)">T</text></g><defs><clipPath id="clip_4"><rect width="32" height="32" clip-rule="evenodd"/></clipPath></defs><g clip-path="url(#clip_4)"><text x="8.672" y="4.9" fill="#231F20" fill-opacity=".698" stroke="none" font-family="Gotham" font-size="14" font-weight="bold" transform="translate(3.5 25)">E</text></g><defs><clipPath id="clip_5"><rect width="32" height="32" clip-rule="evenodd"/></clipPath></defs><g clip-path="url(#clip_5)"><text x="17.652" y="4.9" fill="#231F20" fill-opacity=".698" stroke="none" font-family="Gotham" font-size="14" font-weight="bold" transform="translate(3.5 25)">X</text></g></svg>