<svg xmlns="http://www.w3.org/2000/svg" xmlns:xlink="http://www.w3.org/1999/xlink" width="16" height="16"><rect width="16" height="16" fill="#FFF" fill-opacity="0" stroke="none"/><defs><clipPath id="clip_0"><rect width="16" height="16" clip-rule="evenodd"/></clipPath></defs><g clip-path="url(#clip_0)"><path fill="#9AA7B0" fill-opacity=".8" stroke="none" d="M0 4L4 4L4 0L0 4Z" transform="translate(3 1)"/></g><defs><clipPath id="clip_1"><rect width="16" height="16" clip-rule="evenodd"/></clipPath></defs><g clip-path="url(#clip_1)"><path fill="#9AA7B0" fill-opacity=".8" stroke="none" d="M0 7L0 5L5 5L5 0L10 0L10 7L0 7Z" transform="translate(3 1)"/></g><defs><clipPath id="clip_2"><rect width="16" height="16" clip-rule="evenodd"/></clipPath></defs><g clip-path="url(#clip_2)"><path fill="#F26522" fill-opacity=".698" stroke="none" d="M0 0L15 0L15 7L0 7L0 0Z" transform="translate(1 9)"/></g><defs><clipPath id="clip_3"><rect width="16" height="16" clip-rule="evenodd"/></clipPath></defs><g clip-path="url(#clip_3)"><text x="0" y="2.45" fill="#231F20" fill-opacity=".698" stroke="none" font-family="Gotham" font-size="7" font-weight="bold" transform="translate(1.39999 12.5)">P</text></g><defs><clipPath id="clip_4"><rect width="16" height="16" clip-rule="evenodd"/></clipPath></defs><g clip-path="url(#clip_4)"><text x="4.276" y="2.45" fill="#231F20" fill-opacity=".698" stroke="none" font-family="Gotham" font-size="7" font-weight="bold" transform="translate(1.39999 12.5)">D</text></g><defs><clipPath id="clip_5"><rect width="16" height="16" clip-rule="evenodd"/></clipPath></defs><g clip-path="url(#clip_5)"><text x="9.35" y="2.45" fill="#231F20" fill-opacity=".698" stroke="none" font-family="Gotham" font-size="7" font-weight="bold" transform="translate(1.39999 12.5)">F</text></g></svg>