<svg xmlns="http://www.w3.org/2000/svg" xmlns:xlink="http://www.w3.org/1999/xlink" width="16" height="16"><rect width="16" height="16" fill="#FFF" fill-opacity="0" stroke="none"/><defs><clipPath id="clip_0"><rect width="16" height="16" clip-rule="evenodd"/></clipPath></defs><g clip-path="url(#clip_0)"><path fill="#9AA7B0" fill-opacity=".8" fill-rule="evenodd" stroke="none" d="M0 4L4 0L4 4L0 4ZM5 5L5 0L10 0L10 14L0 14L0 5L5 5Z" transform="translate(3 1)"/></g><defs><clipPath id="clip_1"><rect width="16" height="16" clip-rule="evenodd"/></clipPath></defs><g clip-path="url(#clip_1)"><path fill="#231F20" fill-opacity=".698" fill-rule="evenodd" stroke="none" d="M0 0L6 0L6 1L0 1L0 0ZM0 2L6 2L6 3L0 3L0 2ZM4 4L0 4L0 5L4 5L4 4Z" transform="translate(5 7)"/></g></svg>