<svg xmlns="http://www.w3.org/2000/svg" xmlns:xlink="http://www.w3.org/1999/xlink" id="Laag_1" width="16" height="16" x="0" y="0" enable-background="new 0 0 16 16" version="1.1" viewBox="0 0 16 16" xml:space="preserve"><rect width="16" height="16" fill="#FFF" fill-opacity="0"/><g><defs><rect id="SVGID_1_" width="16" height="16"/></defs><clipPath id="SVGID_2_"><use overflow="visible" xlink:href="#SVGID_1_"/></clipPath><g clip-path="url(#SVGID_2_)"><path fill="#9AA7B0" fill-opacity=".8" d="M3,5h4V1L3,5z"/></g></g><g><defs><rect id="SVGID_3_" width="16" height="16"/></defs><clipPath id="SVGID_4_"><use overflow="visible" xlink:href="#SVGID_3_"/></clipPath><g clip-path="url(#SVGID_4_)"><path fill="#9AA7B0" fill-opacity=".8" d="M3,8V6h5V1h5v7H3z"/></g></g><g><defs><rect id="SVGID_5_" width="16" height="16"/></defs><clipPath id="SVGID_6_"><use overflow="visible" xlink:href="#SVGID_5_"/></clipPath><g clip-path="url(#SVGID_6_)"><path fill="#65B344" fill-opacity=".698" d="M1,9h15v7H1V9z"/></g></g><g><defs><rect id="SVGID_7_" width="16" height="16"/></defs><clipPath id="SVGID_8_"><use overflow="visible" xlink:href="#SVGID_7_"/></clipPath></g><g><path fill="#231F20" d="M4.396,11.051v3.908H3.316v-3.908H1.825v-0.994h4.062v0.994H4.396z" opacity=".7"/><path fill="#231F20" d="M6.55,10.792V9.847h1.12v0.945H6.55z M6.578,14.959v-3.754h1.064v3.754H6.578z" opacity=".7"/><path fill="#231F20" d="M8.608,14.959V14.14l2.696-3.138H8.692v-0.945h3.999v0.819l-2.696,3.138h2.696v0.945H8.608z" opacity=".7"/></g></svg>